<svg width="231" height="70" viewBox="0 0 231 70" fill="none" xmlns="http://www.w3.org/2000/svg">
<path d="M0 5C0 2.23858 2.23858 0 5 0H80V70H5C2.23858 70 0 67.7614 0 65V5Z" fill="#FF3838"/>
<path d="M20.3248 27.2C22.4688 27.2 24.1488 27.712 25.3648 28.736C26.5808 29.76 27.1888 31.168 27.1888 32.96C27.1888 34.752 26.5808 36.16 25.3648 37.184C24.1488 38.192 22.4688 38.696 20.3248 38.696H15.8128V44H14.0368V27.2H20.3248ZM20.2768 37.136C21.9408 37.136 23.2128 36.776 24.0928 36.056C24.9728 35.32 25.4128 34.288 25.4128 32.96C25.4128 31.6 24.9728 30.56 24.0928 29.84C23.2128 29.104 21.9408 28.736 20.2768 28.736H15.8128V37.136H20.2768ZM38.5593 44.144C36.8953 44.144 35.3913 43.776 34.0473 43.04C32.7193 42.304 31.6713 41.288 30.9033 39.992C30.1513 38.68 29.7753 37.216 29.7753 35.6C29.7753 33.984 30.1513 32.528 30.9033 31.232C31.6713 29.92 32.7273 28.896 34.0713 28.16C35.4153 27.424 36.9193 27.056 38.5833 27.056C39.8313 27.056 40.9833 27.264 42.0393 27.68C43.0953 28.096 43.9913 28.704 44.7273 29.504L43.5993 30.632C42.2873 29.304 40.6313 28.64 38.6313 28.64C37.3033 28.64 36.0953 28.944 35.0073 29.552C33.9193 30.16 33.0633 30.992 32.4393 32.048C31.8313 33.104 31.5273 34.288 31.5273 35.6C31.5273 36.912 31.8313 38.096 32.4393 39.152C33.0633 40.208 33.9193 41.04 35.0073 41.648C36.0953 42.256 37.3033 42.56 38.6313 42.56C40.6473 42.56 42.3033 41.888 43.5993 40.544L44.7273 41.672C43.9913 42.472 43.0873 43.088 42.0153 43.52C40.9593 43.936 39.8073 44.144 38.5593 44.144ZM65.9613 27.2V44H64.2573V30.56L57.6573 41.864H56.8173L50.2173 30.632V44H48.5133V27.2H49.9773L57.2733 39.656L64.4973 27.2H65.9613Z" fill="black"/>
<path d="M102.121 27.2C103.577 27.2 104.841 27.44 105.913 27.92C107.001 28.4 107.833 29.088 108.409 29.984C108.985 30.88 109.273 31.944 109.273 33.176C109.273 34.392 108.985 35.456 108.409 36.368C107.833 37.264 107.001 37.952 105.913 38.432C104.841 38.912 103.577 39.152 102.121 39.152H98.3291V44H95.2091V27.2H102.121ZM101.977 36.512C103.337 36.512 104.369 36.224 105.073 35.648C105.777 35.072 106.129 34.248 106.129 33.176C106.129 32.104 105.777 31.28 105.073 30.704C104.369 30.128 103.337 29.84 101.977 29.84H98.3291V36.512H101.977ZM120.399 44.24C118.703 44.24 117.167 43.872 115.791 43.136C114.431 42.384 113.359 41.352 112.575 40.04C111.807 38.728 111.423 37.248 111.423 35.6C111.423 33.952 111.815 32.472 112.599 31.16C113.383 29.848 114.455 28.824 115.815 28.088C117.191 27.336 118.727 26.96 120.423 26.96C121.799 26.96 123.055 27.2 124.191 27.68C125.327 28.16 126.287 28.856 127.071 29.768L125.055 31.664C123.839 30.352 122.343 29.696 120.567 29.696C119.415 29.696 118.383 29.952 117.471 30.464C116.559 30.96 115.847 31.656 115.335 32.552C114.823 33.448 114.567 34.464 114.567 35.6C114.567 36.736 114.823 37.752 115.335 38.648C115.847 39.544 116.559 40.248 117.471 40.76C118.383 41.256 119.415 41.504 120.567 41.504C122.343 41.504 123.839 40.84 125.055 39.512L127.071 41.432C126.287 42.344 125.319 43.04 124.167 43.52C123.031 44 121.775 44.24 120.399 44.24ZM152.126 44L152.102 32.864L146.582 42.08H145.19L139.67 33.008V44H136.694V27.2H139.262L145.934 38.336L152.486 27.2H155.054L155.078 44H152.126ZM164.223 31.04C166.111 31.04 167.551 31.496 168.543 32.408C169.551 33.304 170.055 34.664 170.055 36.488V44H167.223V42.44C166.855 43 166.327 43.432 165.639 43.736C164.967 44.024 164.151 44.168 163.191 44.168C162.231 44.168 161.391 44.008 160.671 43.688C159.951 43.352 159.391 42.896 158.991 42.32C158.607 41.728 158.415 41.064 158.415 40.328C158.415 39.176 158.839 38.256 159.687 37.568C160.551 36.864 161.903 36.512 163.743 36.512H167.055V36.32C167.055 35.424 166.783 34.736 166.239 34.256C165.711 33.776 164.919 33.536 163.863 33.536C163.143 33.536 162.431 33.648 161.727 33.872C161.039 34.096 160.455 34.408 159.975 34.808L158.799 32.624C159.471 32.112 160.279 31.72 161.223 31.448C162.167 31.176 163.167 31.04 164.223 31.04ZM163.815 41.984C164.567 41.984 165.231 41.816 165.807 41.48C166.399 41.128 166.815 40.632 167.055 39.992V38.504H163.959C162.231 38.504 161.367 39.072 161.367 40.208C161.367 40.752 161.583 41.184 162.015 41.504C162.447 41.824 163.047 41.984 163.815 41.984ZM177.866 44.168C176.826 44.168 175.81 44.032 174.818 43.76C173.826 43.488 173.034 43.144 172.442 42.728L173.594 40.448C174.17 40.832 174.858 41.144 175.658 41.384C176.474 41.608 177.274 41.72 178.058 41.72C179.85 41.72 180.746 41.248 180.746 40.304C180.746 39.856 180.514 39.544 180.05 39.368C179.602 39.192 178.874 39.024 177.866 38.864C176.81 38.704 175.946 38.52 175.274 38.312C174.618 38.104 174.042 37.744 173.546 37.232C173.066 36.704 172.826 35.976 172.826 35.048C172.826 33.832 173.33 32.864 174.338 32.144C175.362 31.408 176.738 31.04 178.466 31.04C179.346 31.04 180.226 31.144 181.106 31.352C181.986 31.544 182.706 31.808 183.266 32.144L182.114 34.424C181.026 33.784 179.802 33.464 178.442 33.464C177.562 33.464 176.89 33.6 176.426 33.872C175.978 34.128 175.754 34.472 175.754 34.904C175.754 35.384 175.994 35.728 176.474 35.936C176.97 36.128 177.73 36.312 178.754 36.488C179.778 36.648 180.618 36.832 181.274 37.04C181.93 37.248 182.49 37.6 182.954 38.096C183.434 38.592 183.674 39.296 183.674 40.208C183.674 41.408 183.154 42.368 182.114 43.088C181.074 43.808 179.658 44.168 177.866 44.168ZM193.961 43.304C193.609 43.592 193.177 43.808 192.665 43.952C192.169 44.096 191.641 44.168 191.081 44.168C189.673 44.168 188.585 43.8 187.817 43.064C187.049 42.328 186.665 41.256 186.665 39.848V33.68H184.553V31.28H186.665V28.352H189.665V31.28H193.097V33.68H189.665V39.776C189.665 40.4 189.817 40.88 190.121 41.216C190.425 41.536 190.865 41.696 191.441 41.696C192.113 41.696 192.673 41.52 193.121 41.168L193.961 43.304ZM208.055 37.664C208.055 37.872 208.039 38.168 208.007 38.552H197.951C198.127 39.496 198.583 40.248 199.319 40.808C200.071 41.352 200.999 41.624 202.103 41.624C203.511 41.624 204.671 41.16 205.583 40.232L207.191 42.08C206.615 42.768 205.887 43.288 205.007 43.64C204.127 43.992 203.135 44.168 202.031 44.168C200.623 44.168 199.383 43.888 198.311 43.328C197.239 42.768 196.407 41.992 195.815 41C195.239 39.992 194.951 38.856 194.951 37.592C194.951 36.344 195.231 35.224 195.791 34.232C196.367 33.224 197.159 32.44 198.167 31.88C199.175 31.32 200.311 31.04 201.575 31.04C202.823 31.04 203.935 31.32 204.911 31.88C205.903 32.424 206.671 33.2 207.215 34.208C207.775 35.2 208.055 36.352 208.055 37.664ZM201.575 33.44C200.615 33.44 199.799 33.728 199.127 34.304C198.471 34.864 198.071 35.616 197.927 36.56H205.199C205.071 35.632 204.679 34.88 204.023 34.304C203.367 33.728 202.551 33.44 201.575 33.44ZM213.793 33.056C214.657 31.712 216.177 31.04 218.353 31.04V33.896C218.097 33.848 217.865 33.824 217.657 33.824C216.489 33.824 215.577 34.168 214.921 34.856C214.265 35.528 213.937 36.504 213.937 37.784V44H210.937V31.184H213.793V33.056Z" fill="black"/>
<rect x="0.5" y="0.5" width="228" height="69" rx="4.5" stroke="#FF3838"/>
</svg>
