<svg width="40" height="40" viewBox="0 0 40 40" fill="none" xmlns="http://www.w3.org/2000/svg">
<g clip-path="url(#clip0)">
<path d="M39.1666 7.5H0.833359C0.373359 7.5 0 7.87336 0 8.33336C0 8.79336 0.373359 9.16672 0.833359 9.16672H39.1667C39.6267 9.16672 40.0001 8.79336 40.0001 8.33336C40.0001 7.87336 39.6266 7.5 39.1666 7.5Z" fill="black"/>
<path d="M39.1666 19.1666H0.833359C0.373359 19.1666 0 19.54 0 20C0 20.46 0.373359 20.8333 0.833359 20.8333H39.1667C39.6267 20.8333 40.0001 20.46 40.0001 20C40.0001 19.54 39.6266 19.1666 39.1666 19.1666Z" fill="black"/>
<path d="M39.1666 30.8334H0.833359C0.373359 30.8334 0 31.2067 0 31.6667C0 32.1267 0.373359 32.5 0.833359 32.5H39.1667C39.6267 32.5 40.0001 32.1267 40.0001 31.6667C40 31.2067 39.6266 30.8334 39.1666 30.8334Z" fill="black"/>
</g>
<defs>
<clipPath id="clip0">
<rect width="40" height="40" fill="white"/>
</clipPath>
</defs>
</svg>
