<svg width="301" height="319" viewBox="0 0 301 319" fill="none" xmlns="http://www.w3.org/2000/svg">
<path d="M297.37 70.3862L152.532 0.464176C151.248 -0.155132 149.752 -0.155132 148.469 0.464176L3.62977 70.3862C2.01484 71.1657 0.988678 72.8012 0.988678 74.5943V244.405C0.988678 246.198 2.01484 247.834 3.62977 248.613L148.468 318.535C149.11 318.845 149.805 319 150.5 319C151.195 319 151.889 318.845 152.532 318.535L297.37 248.613C298.985 247.834 300.011 246.198 300.011 244.405V74.5949C300.011 72.8005 298.985 71.1663 297.37 70.3862ZM150.5 9.86159L284.59 74.5943L245.72 93.3592C245.474 93.1717 245.214 92.9985 244.929 92.8608L111.75 28.5686L150.5 9.86159ZM101.196 33.852L235.092 98.4906L207.668 111.73L73.8285 47.1173L101.196 33.852ZM238.224 107.355V156.293L212.609 168.659V119.722L238.224 107.355ZM290.666 241.473L155.173 306.882V147.449L187.492 131.847C189.816 130.725 190.791 127.931 189.668 125.607C188.546 123.284 185.753 122.308 183.429 123.431L150.5 139.328L137.543 133.072C135.219 131.949 132.425 132.925 131.303 135.249C130.181 137.572 131.156 140.366 133.48 141.488L145.827 147.449V306.882L10.3344 241.472V82.0391L113.511 131.849C114.166 132.165 114.858 132.315 115.539 132.315C117.276 132.315 118.945 131.341 119.75 129.672C120.872 127.348 119.898 124.555 117.574 123.432L16.4097 74.5943L62.8298 52.1845L203.199 119.949C203.219 119.978 203.242 120.003 203.263 120.031V176.105C203.263 177.713 204.09 179.208 205.452 180.063C206.208 180.538 207.071 180.778 207.937 180.778C208.63 180.778 209.324 180.624 209.968 180.313L244.929 163.435C246.544 162.656 247.57 161.021 247.57 159.227V102.844L290.666 82.0397V241.473Z" fill="black"/>
</svg>
