<svg width="40" height="40" viewBox="0 0 40 40" fill="none" xmlns="http://www.w3.org/2000/svg">
<circle cx="20" cy="20" r="19.5" stroke="#FF3838"/>
<path d="M6.79313 32.4313C7.0509 32.572 13.185 35.875 20 35.875C27.3834 35.875 32.9918 32.5609 33.2269 32.4199C33.3102 32.3699 33.3791 32.2992 33.427 32.2147C33.4748 32.1301 33.5 32.0347 33.5 31.9375C33.5 27.3958 32.1073 23.2399 29.5786 20.2346C27.8097 18.1322 25.5902 16.6993 23.1423 16.0396C24.6407 15.3265 25.8521 14.1249 26.5773 12.6323C27.3025 11.1396 27.4984 9.44469 27.1329 7.82595C26.7674 6.20722 25.8621 4.76095 24.5659 3.72478C23.2696 2.6886 21.6595 2.12415 20 2.12415C18.3405 2.12415 16.7304 2.6886 15.4341 3.72478C14.1379 4.76095 13.2326 6.20722 12.8671 7.82595C12.5016 9.44469 12.6975 11.1396 13.4227 12.6323C14.1479 14.1249 15.3593 15.3265 16.8577 16.0396C14.4098 16.6993 12.1903 18.1324 10.4214 20.2346C7.89268 23.2399 6.5 27.3958 6.5 31.9375C6.5 32.0386 6.52722 32.1378 6.5788 32.2247C6.63039 32.3115 6.70442 32.3829 6.79313 32.4313V32.4313ZM13.8125 9.43752C13.8125 8.21375 14.1754 7.01746 14.8553 5.99993C15.5352 4.9824 16.5015 4.18934 17.6321 3.72102C18.7628 3.2527 20.0069 3.13017 21.2071 3.36891C22.4074 3.60766 23.5099 4.19696 24.3752 5.0623C25.2406 5.92764 25.8299 7.03015 26.0686 8.2304C26.3074 9.43066 26.1848 10.6748 25.7165 11.8054C25.2482 12.936 24.4551 13.9024 23.4376 14.5822C22.4201 15.2621 21.2238 15.625 20 15.625C18.3595 15.6232 16.7868 14.9707 15.6268 13.8107C14.4669 12.6507 13.8144 11.078 13.8125 9.43752V9.43752ZM11.2822 20.9589C13.5664 18.2447 16.6621 16.75 20 16.75C23.3379 16.75 26.4336 18.2447 28.7178 20.9589C31.0157 23.6897 32.3077 27.4614 32.3725 31.6094C31.1688 32.261 26.167 34.75 20 34.75C14.297 34.75 8.92578 32.2463 7.62781 31.5961C7.69531 27.4532 8.98674 23.6868 11.2822 20.9589Z" fill="black"/>
</svg>
